Coordinates
version=1
nRows=10
nColumns=63
inDegrees=yes

Units are S.I. units (second, meters, Newtons, ...)
If the header above contains a line with 'inDegrees', this indicates whether rotational values are in degrees (yes) or radians (no).

endheader
time	pelvis_tilt	pelvis_list	pelvis_rotation	pelvis_tx	pelvis_ty	pelvis_tz	hip_flexion_r	hip_adduction_r	hip_rotation_r	knee_angle_r	knee_angle_r_beta	ankle_angle_r	subtalar_angle_r	mtp_angle_r	hip_flexion_l	hip_adduction_l	hip_rotation_l	knee_angle_l	knee_angle_l_beta	ankle_angle_l	subtalar_angle_l	mtp_angle_l	L5_S1_Flex_Ext	L5_S1_Lat_Bending	L5_S1_axial_rotation	L4_L5_Flex_Ext	L4_L5_Lat_Bending	L4_L5_axial_rotation	L3_L4_Flex_Ext	L3_L4_Lat_Bending	L3_L4_axial_rotation	L2_L3_Flex_Ext	L2_L3_Lat_Bending	L2_L3_axial_rotation	L1_L2_Flex_Ext	L1_L2_Lat_Bending	L1_L2_axial_rotation	L1_T12_Flex_Ext	L1_T12_Lat_Bending	L1_T12_axial_rotation	Abs_r3	Abs_r2	Abs_r1	Abs_t1	Abs_t2	neck_flexion	neck_bending	neck_rotation	arm_flex_r	arm_add_r	arm_rot_r	elbow_flex_r	pro_sup_r	wrist_flex_r	wrist_dev_r	arm_flex_l	arm_add_l	arm_rot_l	elbow_flex_l	pro_sup_l	wrist_flex_l	wrist_dev_l
      0.00800000	    -52.38716671	      6.30885058	      6.26742734	     -0.34965762	      0.97785072	      0.04023490	     93.62463710	    -11.35074546	      1.17067919	     46.61853335	      0.81364690	     -5.81845704	     -0.70934457	      0.00000000	    121.29272761	     -8.68801989	     -4.16247258	    116.58407709	      2.03477600	      4.93926702	      4.23479821	      0.00000000	     -0.09401230	     -1.30973896	     -0.90177716	     -0.17459024	     -1.74195282	     -0.95813823	     -0.15445280	     -3.18449931	     -0.95813823	     -0.10744666	     -3.18449931	     -0.78905501	     -0.08729982	     -2.67081969	     -0.73269394	     -0.05371863	     -2.02878565	     -0.67633287	     -0.67152044	    -14.81602908	     -5.01541401	      0.00000000	      0.00000000	      0.00000000	      0.00000000	      0.00000001	     64.04172063	     -6.14578377	    -11.60846368	     42.61967711	     60.15178604	      0.00000000	      2.87824290	     73.47574305	     -9.43282627	      9.80290535	     40.65554629	     62.58662467	      0.00000000	      2.87824290
      0.01700000	    -52.76326562	      8.50932624	      6.31630723	     -0.34912852	      0.97898823	      0.04046053	     91.19687760	    -11.80065279	      2.41140482	     44.32094629	      0.77354644	     -6.99065580	     -0.06549337	      0.00000000	    124.40701349	    -10.26480765	     -6.48096352	    117.58702270	      2.05228070	      5.25974758	      4.47661040	      0.00000000	     -0.09302618	     -1.64916754	     -0.80333393	     -0.17275892	     -2.19339283	     -0.85354230	     -0.15283271	     -4.00978596	     -0.85354230	     -0.10631962	     -4.00978596	     -0.70291719	     -0.08638411	     -3.36298245	     -0.65270882	     -0.05315516	     -2.55456052	     -0.60250045	     -0.66447669	    -18.65571306	     -4.46790233	      0.00000000	      0.00000000	      0.00000000	      0.00000000	      0.00000001	     63.47114404	     -6.71636199	    -12.27309681	     42.64166702	     59.89838199	      0.00000000	      2.95020828	     74.24948703	     -8.74606358	     10.52642273	     40.57218624	     62.59127973	      0.00000000	      2.95020828
      0.02500000	    -52.85789376	      8.62585093	      6.35022758	     -0.34925382	      0.97952517	      0.04020446	     90.63769438	    -11.91336135	      2.49522609	     44.35937256	      0.77421711	     -6.96373018	     -0.09453058	      0.00000000	    125.39797219	    -10.32798669	     -6.63544594	    117.33353069	      2.04785643	      5.33279398	      4.47398909	      0.00000000	     -0.09190929	     -1.67248735	     -0.80958031	     -0.17068474	     -2.22440817	     -0.86017908	     -0.15099777	     -4.06648574	     -0.86017908	     -0.10504313	     -4.06648574	     -0.70838277	     -0.08534697	     -3.41053620	     -0.65778400	     -0.05251697	     -2.59068290	     -0.60718523	     -0.65649887	    -18.91951137	     -4.50264280	      0.00000000	      0.00000000	      0.00000000	      0.00000000	      0.00000001	     63.46107715	     -6.74603835	    -12.34584604	     42.63038642	     59.85719916	      0.00000000	      2.96114392	     74.37435147	     -8.69814264	     10.63118207	     40.60313088	     62.57525134	      0.00000000	      2.96114392
      0.03300000	    -52.98179719	      8.81057981	      6.49966919	     -0.34942021	      0.98028762	      0.03990974	     90.01786694	    -12.08630808	      2.84506291	     44.49467422	      0.77657856	     -6.40597834	     -0.25401292	      0.00000000	    126.48515254	    -10.32491162	     -6.82494716	    116.76958156	      2.03801366	      4.60038738	      4.68135977	      0.00000000	     -0.09226483	     -1.70844395	     -0.83212027	     -0.17134502	     -2.27223046	     -0.88412779	     -0.15158189	     -4.15391062	     -0.88412779	     -0.10544947	     -4.15391062	     -0.72810524	     -0.08567712	     -3.48385891	     -0.67609772	     -0.05272012	     -2.64637968	     -0.62409020	     -0.65903845	    -19.32625967	     -4.62800330	      0.00000000	      0.00000000	      0.00000000	      0.00000000	      0.00000001	     63.35010099	     -6.74182424	    -12.67080899	     42.75926095	     59.70930588	      0.00000000	      3.00273424	     74.69370094	     -8.70130735	     11.32177401	     40.30299262	     62.61524845	      0.00000000	      3.00273424
      0.04200000	    -53.10379671	      8.89795626	      6.34445306	     -0.34975330	      0.98128450	      0.03977203	     89.42922048	    -12.05974869	      2.85933559	     44.81782022	      0.78221853	     -6.35936175	     -0.26624519	      0.00000000	    127.52532162	    -10.44466699	     -6.89950396	    116.02984407	      2.02510281	      4.71465386	      4.64647710	      0.00000000	     -0.09313595	     -1.72538046	     -0.81804101	     -0.17296276	     -2.29475601	     -0.86916857	     -0.15301304	     -4.19509005	     -0.86916857	     -0.10644507	     -4.19509005	     -0.71578588	     -0.08648604	     -3.51839583	     -0.66465832	     -0.05321788	     -2.67261433	     -0.61353076	     -0.66526074	    -19.51784883	     -4.54969867	      0.00000000	      0.00000000	      0.00000000	      0.00000000	      0.00000001	     63.34276006	     -6.70753318	    -12.68749675	     42.75694777	     59.67358655	      0.00000000	      3.01321950	     74.88332075	     -8.71574707	     11.38272086	     40.35956505	     62.59066565	      0.00000000	      3.01321950
      0.05000000	    -53.24919491	      8.94454928	      6.13108125	     -0.35025699	      0.98245379	      0.03966817	     88.90931754	    -11.96444097	      2.92659131	     45.41060098	      0.79256450	     -6.16863677	     -0.34016664	      0.00000000	    128.51350023	    -10.53179355	     -6.88113132	    114.94889454	      2.00623668	      4.69131097	      4.65314641	      0.00000000	     -0.09261874	     -1.73581448	     -0.79259428	     -0.17200225	     -2.30863326	     -0.84213142	     -0.15216332	     -4.22045932	     -0.84213142	     -0.10585395	     -4.22045932	     -0.69351999	     -0.08600576	     -3.53967288	     -0.64398285	     -0.05292235	     -2.68877663	     -0.59444571	     -0.66156637	    -19.63588054	     -4.40817161	      0.00000000	      0.00000000	      0.00000000	      0.00000000	      0.00000001	     63.42436180	     -6.71568560	    -12.71420609	     42.78990766	     59.63556109	      0.00000000	      3.02426866	     75.04473775	     -8.71621120	     11.48350714	     40.36123999	     62.57263369	      0.00000000	      3.02426866
      0.05800000	    -53.36602603	      8.83348090	      6.15492609	     -0.35074429	      0.98319896	      0.03897897	     88.74414584	    -11.96215628	      3.46277176	     47.13010319	      0.82257548	     -5.28480815	     -0.74109923	      0.00000000	    129.54437275	    -10.24763934	     -6.73625768	    113.67682369	      1.98403486	      3.84997670	      4.90966740	      0.00000000	     -0.09045359	     -1.72074231	     -0.79978822	     -0.16798137	     -2.28858728	     -0.84977498	     -0.14860621	     -4.18381286	     -0.84977498	     -0.10337941	     -4.18381286	     -0.69981469	     -0.08399521	     -3.50893773	     -0.64982793	     -0.05168518	     -2.66542985	     -0.59984116	     -0.64610097	    -19.46538121	     -4.44818213	      0.00000000	      0.00000000	      0.00000000	      0.00000000	      0.00000001	     63.48290019	     -6.79608303	    -12.77469403	     42.85193532	     59.54936160	      0.00000000	      3.05418821	     75.28219361	     -8.69942201	     11.99789272	     40.01413991	     62.60209321	      0.00000000	      3.05418821
      0.06700000	    -53.51293498	      8.76690139	      5.91213187	     -0.35154892	      0.98440199	      0.03872156	     88.58977871	    -11.76372869	      3.78809786	     48.69100796	      0.84981840	     -4.72161211	     -1.00738585	      0.00000000	    130.24748749	    -10.16620569	     -6.63502443	    112.01179302	      1.95497459	      3.58570819	      4.99017237	      0.00000000	     -0.09152799	     -1.70827084	     -0.77170305	     -0.16997664	     -2.27200022	     -0.81993449	     -0.15037134	     -4.15348972	     -0.81993449	     -0.10460734	     -4.15348972	     -0.67524017	     -0.08499289	     -3.48350590	     -0.62700873	     -0.05229909	     -2.64611153	     -0.57877729	     -0.65377530	    -19.32430140	     -4.29198085	      0.00000000	      0.00000000	      0.00000000	      0.00000000	      0.00000001	     63.66075118	     -6.80381851	    -12.74171324	     42.87204454	     59.48946802	      0.00000000	      3.07779526	     75.52364628	     -8.75288259	     12.27861219	     39.90007024	     62.60374735	      0.00000000	      3.07779526
      0.07500000	    -53.68363156	      8.78190362	      5.82461993	     -0.35245636	      0.98563704	      0.03838593	     88.71961604	    -11.68070498	      4.30774904	     50.78101268	      0.88629587	     -3.93116300	     -1.43868237	      0.00000000	    130.63437907	     -9.95210704	     -6.70118445	    109.97119991	      1.91935952	      3.22367482	      5.19149982	      0.00000000	     -0.09155119	     -1.70598488	     -0.78271760	     -0.17001972	     -2.26895989	     -0.83163745	     -0.15040945	     -4.14793163	     -0.83163745	     -0.10463386	     -4.14793163	     -0.68487790	     -0.08501444	     -3.47884436	     -0.63595805	     -0.05231235	     -2.64257057	     -0.58703820	     -0.65394101	    -19.29844211	     -4.35324046	      0.00000000	      0.00000000	      0.00000000	      0.00000000	      0.00000001	     63.88079567	     -6.78682258	    -12.47913783	     42.81134926	     59.32120630	      0.00000000	      3.15998021	     75.86803716	     -8.97738920	     13.01055977	     39.63381428	     62.63079138	      0.00000000	      3.15998021
      0.08300000	    -53.81326640	      8.59229013	      5.40759069	     -0.35354989	      0.98676216	      0.03828482	     89.01432402	    -11.20258230	      4.80278558	     53.21878049	      0.92884294	     -3.45573760	     -1.84769654	      0.00000000	    130.81119879	     -9.80154526	     -6.40974365	    107.72338084	      1.88012768	      3.13775423	      5.35577212	      0.00000000	     -0.09132977	     -1.66906349	     -0.73178212	     -0.16960851	     -2.21985444	     -0.77751850	     -0.15004567	     -4.05816096	     -0.77751850	     -0.10438079	     -4.05816096	     -0.64030935	     -0.08480882	     -3.40355426	     -0.59457297	     -0.05218583	     -2.58537934	     -0.54883659	     -0.65235938	    -18.88077997	     -4.06995261	      0.00000000	      0.00000000	      0.00000000	      0.00000000	      0.00000001	     64.19503465	     -6.75888173	    -12.31556657	     42.78575086	     59.21388417	      0.00000000	      3.21139309	     76.04397780	     -9.04968919	     13.08725635	     39.49870042	     62.59389747	      0.00000000	      3.21139309
